<svg data-v-0dd9719b="" version="1.0" xmlns="http://www.w3.org/2000/svg" xmlns:xlink="http://www.w3.org/1999/xlink" width="100%" height="100%" viewBox="0 0 340.000000 250.000000" preserveAspectRatio="xMidYMid meet" color-interpolation-filters="sRGB" style="margin: auto;"> <rect data-v-0dd9719b="" x="0" y="0" width="100%" height="100%" fill="#fff" fill-opacity="1" class="background"></rect> <rect data-v-0dd9719b="" x="0" y="0" width="100%" height="100%" fill="url(#watermark)" fill-opacity="1" class="watermarklayer"></rect> <g data-v-0dd9719b="" fill="#333" class="icon-text-wrapper icon-svg-group iconsvg" transform="translate(46.650001525878906,95.05390357971191)"><g class="iconsvg-imagesvg" transform="translate(0,0)"><g><rect fill="#333" fill-opacity="0" stroke-width="2" x="0" y="0" width="60" height="59.892194050708724" class="image-rect"></rect> <svg x="0" y="0" width="60" height="59.892194050708724" filtersec="colorsb385444468" class="image-svg-svg primary" style="overflow: visible;"><svg xmlns="http://www.w3.org/2000/svg" viewBox="-0.1800132691860199 0 100.18001556396484 100"><defs><linearGradient id="a02f1ac95-b3c1-439e-b1a6-c58f70172d97" x1="88.52" y1="88.52" x2="25.58" y2="25.58" gradientUnits="userSpaceOnUse"><stop offset="0" stop-color="#00b3ee"></stop><stop offset="1" stop-color="#c200af"></stop></linearGradient><linearGradient id="b0d7d2471-f4be-490d-9ec3-90b9352cca9b" x1="54.82" y1="86.45" x2="29.61" y2="42.79" gradientUnits="userSpaceOnUse"><stop offset="0" stop-color="#6227d8"></stop><stop offset="1" stop-opacity="0"></stop></linearGradient></defs><path d="M50 0a50 50 0 1 0 50 50A50 50 0 0 0 50 0zm0 69.15A19.15 19.15 0 1 1 69.15 50 19.15 19.15 0 0 1 50 69.15z" fill="url(#a02f1ac95-b3c1-439e-b1a6-c58f70172d97)"></path><path d="M69.14 50.59a50 50 0 0 1-34.56 47l-.62-.2h-.11A50 50 0 0 1 46.49.12c-17.68 3.41-16.7 45-15.64 49.88.06 24.69 37.49 25.22 38.29.59z" fill="url(#b0d7d2471-f4be-490d-9ec3-90b9352cca9b)"></path></svg></svg> <!----></g></g> <g transform="translate(67,19.726097106933594)"><g data-gra="path-name" fill-rule="" class="tp-name iconsvg-namesvg"><g transform="scale(1)"><g><path d="M10.22-19.72L10.22-19.72 16.97-2.33Q17.36-1.33 17.84-0.96 18.33-0.58 18.72-0.56L18.72-0.56 18.72 0Q17.88-0.06 16.76-0.07 15.63-0.08 14.5-0.08L14.5-0.08Q13.22-0.08 12.08-0.07 10.94-0.06 10.27 0L10.27 0 10.27-0.56Q11.69-0.61 12.07-1.04 12.44-1.47 11.89-2.89L11.89-2.89 7.16-15.8 7.66-16.52 3.44-5.53Q2.67-3.47 2.68-2.42 2.69-1.36 3.36-0.99 4.03-0.61 5.14-0.56L5.14-0.56 5.14 0Q4.22-0.06 3.39-0.07 2.55-0.08 1.69-0.08L1.69-0.08Q1.08-0.08 0.54-0.07 0-0.06-0.42 0L-0.42 0-0.42-0.56Q0.17-0.67 0.78-1.31 1.39-1.94 1.97-3.47L1.97-3.47 8.3-19.72Q8.75-19.69 9.26-19.69 9.77-19.69 10.22-19.72ZM4.17-8L12.16-8 12.16-7.44 3.89-7.44 4.17-8ZM18.91-19.11L18.91-19.66Q19.61-19.63 20.79-19.61 21.97-19.58 23.13-19.58L23.13-19.58Q24.46-19.58 25.71-19.61 26.96-19.63 27.49-19.63L27.49-19.63Q31.35-19.63 33.27-18.11 35.18-16.58 35.18-14.16L35.18-14.16Q35.18-13.16 34.79-12.07 34.41-10.97 33.48-10.04 32.55-9.11 30.93-8.53 29.32-7.94 26.88-7.94L26.88-7.94 24.05-7.94 24.05-8.5 26.6-8.5Q28.24-8.5 29.09-9.25 29.94-10 30.25-11.22 30.57-12.44 30.57-13.86L30.57-13.86Q30.57-16.49 29.8-17.8 29.02-19.11 27.13-19.11L27.13-19.11Q26.05-19.11 25.73-18.63 25.41-18.16 25.41-16.72L25.41-16.72 25.41-3.11Q25.41-2.03 25.63-1.5 25.85-0.97 26.49-0.81 27.13-0.64 28.38-0.61L28.38-0.61 28.38 0Q27.52-0.03 26.16-0.06 24.8-0.08 23.3-0.08L23.3-0.08Q22.1-0.08 20.97-0.06 19.83-0.03 18.91 0L18.91 0 18.91-0.56Q19.8-0.61 20.24-0.78 20.69-0.94 20.84-1.44 20.99-1.94 20.99-2.94L20.99-2.94 20.99-16.72Q20.99-17.74 20.84-18.23 20.69-18.72 20.23-18.9 19.77-19.08 18.91-19.11L18.91-19.11ZM46.79-20.05L46.79-20.05Q48.62-20.05 49.8-19.51 50.98-18.97 51.9-18.24L51.9-18.24Q52.46-17.83 52.75-18.15 53.04-18.47 53.15-19.66L53.15-19.66 53.79-19.66Q53.73-18.58 53.71-17.04 53.68-15.5 53.68-12.94L53.68-12.94 53.04-12.94Q52.9-14.22 52.68-15.12 52.46-16.02 52.07-16.72 51.68-17.41 50.96-17.97L50.96-17.97Q50.26-18.66 49.35-18.99 48.43-19.33 47.43-19.33L47.43-19.33Q45.93-19.33 44.88-18.54 43.82-17.74 43.17-16.38 42.51-15.02 42.21-13.32 41.9-11.61 41.9-9.77L41.9-9.77Q41.9-7.91 42.22-6.21 42.54-4.5 43.22-3.17 43.9-1.83 44.99-1.06 46.07-0.28 47.54-0.28L47.54-0.28Q48.46-0.28 49.39-0.62 50.32-0.97 50.98-1.64L50.98-1.64Q52.07-2.47 52.46-3.71 52.84-4.94 53.04-7L53.04-7 53.68-7Q53.68-4.36 53.71-2.74 53.73-1.11 53.79 0L53.79 0 53.15 0Q53.04-1.19 52.78-1.5 52.51-1.8 51.9-1.42L51.9-1.42Q50.87-0.69 49.72-0.15 48.57 0.39 46.76 0.39L46.76 0.39Q43.82 0.39 41.61-0.81 39.4-2 38.18-4.25 36.96-6.5 36.96-9.66L36.96-9.66Q36.96-12.77 38.22-15.11 39.49-17.44 41.7-18.74 43.9-20.05 46.79-20.05ZM71.14-19.66L71.14-19.66Q71.03-18.41 70.99-17.24 70.95-16.08 70.95-15.44L70.95-15.44Q70.95-14.83 70.98-14.27 71.01-13.72 71.03-13.33L71.03-13.33 70.39-13.33Q70.03-15.5 69.4-16.73 68.76-17.97 67.83-18.49 66.9-19.02 65.62-19.02L65.62-19.02 64.7-19.02Q63.9-19.02 63.48-18.88 63.06-18.74 62.93-18.33 62.79-17.91 62.79-17.05L62.79-17.05 62.79-3.11Q62.79-2.03 63.01-1.5 63.23-0.97 63.87-0.81 64.51-0.64 65.76-0.61L65.76-0.61 65.76 0Q64.9-0.03 63.54-0.06 62.18-0.08 60.68-0.08L60.68-0.08Q59.48-0.08 58.34-0.06 57.2-0.03 56.29 0L56.29 0 56.29-0.56Q57.18-0.61 57.62-0.78 58.07-0.94 58.22-1.44 58.37-1.94 58.37-2.94L58.37-2.94 58.37-16.72Q58.37-17.74 58.22-18.23 58.07-18.72 57.61-18.9 57.15-19.08 56.29-19.11L56.29-19.11 56.29-19.66Q57.79-19.63 59.54-19.61 61.29-19.58 62.84-19.58 64.4-19.58 65.34-19.58L65.34-19.58Q66.62-19.58 68.24-19.59 69.87-19.61 71.14-19.66ZM61.95-10.05L67.01-10.05Q67.01-10.05 67.01-9.77 67.01-9.5 67.01-9.5L67.01-9.5 61.95-9.5Q61.95-9.5 61.95-9.77 61.95-10.05 61.95-10.05L61.95-10.05ZM67.06-13.72L67.7-13.72Q67.59-12.14 67.6-11.3 67.62-10.47 67.62-9.77L67.62-9.77Q67.62-9.08 67.65-8.25 67.67-7.41 67.78-5.83L67.78-5.83 67.15-5.83Q66.98-6.8 66.62-7.64 66.26-8.47 65.56-8.98 64.87-9.5 63.76-9.5L63.76-9.5 63.76-10.05Q64.87-10.05 65.54-10.66 66.2-11.27 66.55-12.12 66.9-12.97 67.06-13.72L67.06-13.72ZM72.73-19.11L72.73-19.66Q73.42-19.63 74.6-19.61 75.78-19.58 76.95-19.58L76.95-19.58Q78.28-19.58 79.53-19.61 80.78-19.63 81.31-19.63L81.31-19.63Q85.17-19.63 87.08-18.37 89-17.11 89-14.8L89-14.8Q89-13.86 88.61-12.9 88.22-11.94 87.29-11.12 86.36-10.3 84.75-9.82 83.14-9.33 80.7-9.33L80.7-9.33 78.03-9.33 78.03-9.89 80.42-9.89Q82.06-9.89 82.9-10.51 83.75-11.14 84.07-12.18 84.39-13.22 84.39-14.5L84.39-14.5Q84.39-16.69 83.61-17.9 82.84-19.11 80.95-19.11L80.95-19.11Q79.86-19.11 79.54-18.63 79.23-18.16 79.23-16.72L79.23-16.72 79.23-2.94Q79.23-1.94 79.38-1.44 79.53-0.94 79.98-0.78 80.42-0.61 81.31-0.56L81.31-0.56 81.31 0Q80.56-0.06 79.42-0.07 78.28-0.08 77.12-0.08L77.12-0.08Q75.78-0.08 74.6-0.07 73.42-0.06 72.73 0L72.73 0 72.73-0.56Q73.62-0.61 74.06-0.78 74.5-0.94 74.66-1.44 74.81-1.94 74.81-2.94L74.81-2.94 74.81-16.72Q74.81-17.74 74.66-18.23 74.5-18.72 74.05-18.9 73.59-19.08 72.73-19.11L72.73-19.11ZM78.03-9.33L77.98-9.8Q79.17-9.77 80.04-9.69 80.92-9.61 81.59-9.54 82.25-9.47 82.78-9.44L82.78-9.44Q85.31-9.22 86.51-8.36 87.72-7.5 88.08-5.78L88.08-5.78 88.72-2.92Q88.97-1.8 89.25-1.36 89.53-0.92 90.06-0.92L90.06-0.92Q90.42-0.94 90.65-1.1 90.89-1.25 91.17-1.56L91.17-1.56 91.56-1.22Q90.81-0.36 89.94 0.01 89.08 0.39 87.86 0.39L87.86 0.39Q86.36 0.39 85.39-0.25 84.42-0.89 84.11-2.61L84.11-2.61 83.61-5.39Q83.42-6.55 83.14-7.43 82.86-8.3 82.38-8.82 81.89-9.33 81.03-9.33L81.03-9.33 78.03-9.33ZM106.8-19.66L106.8-19.66Q106.69-18.44 106.65-17.3 106.61-16.16 106.61-15.55L106.61-15.55Q106.61-15 106.63-14.5 106.66-14 106.69-13.66L106.69-13.66 106.05-13.66Q105.77-15.69 105.19-16.87 104.61-18.05 103.68-18.54 102.75-19.02 101.5-19.02L101.5-19.02 100.36-19.02Q99.52-19.02 99.12-18.88 98.72-18.74 98.58-18.34 98.44-17.94 98.44-17.05L98.44-17.05 98.44-2.61Q98.44-1.75 98.58-1.33 98.72-0.92 99.12-0.78 99.52-0.64 100.36-0.64L100.36-0.64 101.72-0.64Q102.97-0.64 103.93-1.18 104.88-1.72 105.56-3.03 106.24-4.33 106.61-6.55L106.61-6.55 107.24-6.55Q107.16-5.66 107.16-4.22L107.16-4.22Q107.16-3.58 107.19-2.42 107.22-1.25 107.36 0L107.36 0Q105.94-0.06 104.16-0.07 102.39-0.08 101-0.08L101-0.08Q100.05-0.08 98.5-0.08 96.94-0.08 95.19-0.07 93.44-0.06 91.94 0L91.94 0 91.94-0.56Q92.83-0.61 93.28-0.78 93.72-0.94 93.87-1.44 94.03-1.94 94.03-2.94L94.03-2.94 94.03-16.72Q94.03-17.74 93.87-18.23 93.72-18.72 93.26-18.9 92.8-19.08 91.94-19.11L91.94-19.11 91.94-19.66Q93.44-19.63 95.19-19.61 96.94-19.58 98.5-19.58 100.05-19.58 101-19.58L101-19.58Q102.27-19.58 103.9-19.59 105.52-19.61 106.8-19.66ZM97.61-10.16L102.47-10.16Q102.47-10.16 102.47-9.89 102.47-9.61 102.47-9.61L102.47-9.61 97.61-9.61Q97.61-9.61 97.61-9.89 97.61-10.16 97.61-10.16L97.61-10.16ZM102.63-13.83L103.27-13.83Q103.16-12.25 103.18-11.41 103.19-10.58 103.19-9.89L103.19-9.89Q103.19-9.19 103.22-8.36 103.25-7.53 103.36-5.94L103.36-5.94 102.72-5.94Q102.58-6.91 102.2-7.75 101.83-8.58 101.14-9.09 100.44-9.61 99.33-9.61L99.33-9.61 99.33-10.16Q100.44-10.16 101.11-10.77 101.77-11.39 102.14-12.23 102.5-13.08 102.63-13.83L102.63-13.83ZM118.13-19.66L118.13-19.66 118.13-19.11Q117.24-19.08 116.78-18.9 116.33-18.72 116.19-18.23 116.05-17.74 116.05-16.72L116.05-16.72 116.05-2.94Q116.05-1.94 116.2-1.44 116.35-0.94 116.8-0.78 117.24-0.61 118.13-0.56L118.13-0.56 118.13 0Q117.38-0.06 116.24-0.07 115.1-0.08 113.94-0.08L113.94-0.08Q112.58-0.08 111.42-0.07 110.27-0.06 109.55 0L109.55 0 109.55-0.56Q110.44-0.61 110.88-0.78 111.33-0.94 111.48-1.44 111.63-1.94 111.63-2.94L111.63-2.94 111.63-16.72Q111.63-17.74 111.48-18.23 111.33-18.72 110.87-18.9 110.41-19.08 109.55-19.11L109.55-19.11 109.55-19.66Q110.27-19.63 111.42-19.61 112.58-19.58 113.94-19.58L113.94-19.58Q115.1-19.58 116.24-19.61 117.38-19.63 118.13-19.66ZM130.07-20.05L130.07-20.05Q131.96-20.05 133.15-19.52 134.35-18.99 135.29-18.24L135.29-18.24Q135.62-17.99 135.85-17.99L135.85-17.99Q136.37-17.99 136.54-19.66L136.54-19.66 137.18-19.66Q137.12-18.58 137.1-17.04 137.07-15.5 137.07-12.94L137.07-12.94 136.43-12.94Q136.24-14.61 135.83-15.84 135.43-17.08 134.35-17.97L134.35-17.97Q133.68-18.61 132.7-18.97 131.71-19.33 130.71-19.33L130.71-19.33Q129.18-19.33 128.1-18.54 127.02-17.74 126.32-16.38 125.63-15.02 125.29-13.32 124.96-11.61 124.96-9.77L124.96-9.77Q124.96-4.78 126.34-2.47 127.71-0.17 130.29-0.17L130.29-0.17Q130.96-0.17 131.46-0.33 131.96-0.5 132.26-0.72L132.26-0.72Q132.65-1 132.79-1.32 132.93-1.64 132.93-2.17L132.93-2.17 132.93-4.89Q132.93-6.16 132.72-6.79 132.51-7.41 131.9-7.64 131.29-7.86 130.13-7.89L130.13-7.89 130.13-8.44Q130.71-8.41 131.53-8.4 132.35-8.39 133.24-8.37 134.13-8.36 134.88-8.36L134.88-8.36Q136.04-8.36 137.01-8.39 137.99-8.41 138.6-8.44L138.6-8.44 138.6-7.89Q137.82-7.83 137.58-7.44 137.35-7.05 137.35-5.5L137.35-5.5 137.35 0 136.79 0Q136.76-0.47 136.58-1.03 136.4-1.58 135.99-1.58L135.99-1.58Q135.79-1.58 135.47-1.49 135.15-1.39 134.49-1L134.49-1Q133.46-0.42 132.32-0.01 131.18 0.39 129.93 0.39L129.93 0.39Q125.07 0.39 122.55-2.25 120.02-4.89 120.02-9.61L120.02-9.61Q120.02-12.77 121.31-15.11 122.6-17.44 124.86-18.74 127.13-20.05 130.07-20.05ZM151.95 0L151.95 0 151.95-0.56Q152.84-0.61 153.29-0.78 153.73-0.94 153.88-1.44 154.04-1.94 154.04-2.94L154.04-2.94 154.04-16.72Q154.04-17.74 153.88-18.23 153.73-18.72 153.27-18.9 152.81-19.08 151.95-19.11L151.95-19.11 151.95-19.66Q152.7-19.63 153.91-19.61 155.12-19.58 156.31-19.58L156.31-19.58Q157.59-19.58 158.71-19.61 159.84-19.63 160.53-19.66L160.53-19.66 160.53-19.11Q159.65-19.08 159.19-18.9 158.73-18.72 158.59-18.23 158.45-17.74 158.45-16.72L158.45-16.72 158.45-2.94Q158.45-1.94 158.6-1.44 158.76-0.94 159.2-0.78 159.65-0.61 160.53-0.56L160.53-0.56 160.53 0Q159.84-0.06 158.71-0.07 157.59-0.08 156.31-0.08L156.31-0.08Q155.12-0.08 153.91-0.07 152.7-0.06 151.95 0ZM140.18 0L140.18 0 140.18-0.56Q141.07-0.61 141.51-0.78 141.96-0.94 142.11-1.44 142.26-1.94 142.26-2.94L142.26-2.94 142.26-16.72Q142.26-17.74 142.11-18.23 141.96-18.72 141.5-18.9 141.04-19.08 140.18-19.11L140.18-19.11 140.18-19.66Q140.9-19.63 142.05-19.61 143.21-19.58 144.57-19.58L144.57-19.58Q145.73-19.58 146.87-19.61 148.01-19.63 148.76-19.66L148.76-19.66 148.76-19.11Q147.87-19.08 147.41-18.9 146.95-18.72 146.82-18.23 146.68-17.74 146.68-16.72L146.68-16.72 146.68-2.94Q146.68-1.94 146.83-1.44 146.98-0.94 147.43-0.78 147.87-0.61 148.76-0.56L148.76-0.56 148.76 0Q148.01-0.06 146.87-0.07 145.73-0.08 144.57-0.08L144.57-0.08Q143.21-0.08 142.05-0.07 140.9-0.06 140.18 0ZM155.84-9.61L144.87-9.61 144.87-10.16 155.84-10.16 155.84-9.61ZM179.28-19.66L179.28-19.66Q179.17-18.24 179.13-16.94 179.08-15.63 179.08-14.94L179.08-14.94Q179.08-14.33 179.11-13.77 179.14-13.22 179.17-12.83L179.17-12.83 178.53-12.83Q178.08-15.16 177.4-16.52 176.72-17.88 175.78-18.45 174.83-19.02 173.56-19.02L173.56-19.02 172.92-19.02 172.92-3.17Q172.92-2.05 173.15-1.5 173.39-0.94 174.03-0.76 174.67-0.58 175.89-0.56L175.89-0.56 175.89 0Q175.03-0.03 173.6-0.06 172.17-0.08 170.61-0.08L170.61-0.08Q169.09-0.08 167.73-0.06 166.37-0.03 165.53 0L165.53 0 165.53-0.56Q166.78-0.58 167.42-0.76 168.06-0.94 168.28-1.5 168.5-2.05 168.5-3.17L168.5-3.17 168.5-19.02 167.89-19.02Q166.62-19.02 165.67-18.45 164.73-17.88 164.06-16.54 163.39-15.19 162.89-12.83L162.89-12.83 162.26-12.83Q162.31-13.22 162.32-13.77 162.34-14.33 162.34-14.94L162.34-14.94Q162.34-15.63 162.3-16.94 162.26-18.24 162.14-19.66L162.14-19.66Q163.42-19.63 164.94-19.61 166.45-19.58 167.98-19.58 169.5-19.58 170.73-19.58L170.73-19.58Q171.97-19.58 173.49-19.58 175-19.58 176.53-19.61 178.06-19.63 179.28-19.66Z" transform="translate(0.42000001668930054, 20.049999237060547)"></path></g> <!----> <!----> <!----> <!----> <!----> <!----> <!----></g></g> <!----></g></g></svg>